<svg width="31" height="31" viewBox="0 0 31 31" fill="none" xmlns="http://www.w3.org/2000/svg">
<path d="M0 0.5C0 0.223857 0.223858 0 0.5 0H1.31712C1.59326 0 1.81712 0.223858 1.81712 0.5V23.6539C1.81712 24.1661 2.49577 24.347 2.75076 23.9028L11.6885 8.3313C11.8264 8.09111 12.1332 8.00873 12.3728 8.14757L22.4257 13.9723C22.665 14.1109 22.9715 14.0289 23.1096 13.7893L29.1863 3.2438C29.3247 3.00362 29.6321 2.92188 29.8715 3.06157L30.571 3.46973C30.8084 3.60822 30.8895 3.91233 30.7526 4.15064L23.7816 16.2866C23.6437 16.5267 23.337 16.609 23.0974 16.4702L13.045 10.6457C12.8054 10.5069 12.4987 10.5892 12.3608 10.8292L2.24762 28.4273C2.05606 28.7607 2.29668 29.1765 2.68113 29.1765H5.70715C5.88614 29.1765 6.05147 29.0808 6.14066 28.9256L13.0287 16.9406L13.6859 15.8063C13.8246 15.5669 14.1314 15.4856 14.3705 15.6251L15.5 16.2841L24.424 21.4487C24.6635 21.5874 24.9701 21.505 25.108 21.265L29.9574 12.8219C30.2125 12.3778 30.891 12.5588 30.891 13.0709V30.5C30.891 30.7761 30.6671 31 30.391 31H0.499999C0.223857 31 0 30.7761 0 30.5V0.5ZM25.7628 23.7466C25.6245 23.9859 25.3183 24.0676 25.0792 23.929L15.0257 18.104C14.7861 17.9651 14.4794 18.0474 14.3415 18.2875L8.51647 28.4274C8.32499 28.7607 8.56561 29.1765 8.95003 29.1765H28.5739C28.85 29.1765 29.0739 28.9526 29.0739 28.6765V19.8811C29.0739 19.3697 28.3968 19.1881 28.1409 19.631L25.7628 23.7466Z" fill="black"/>
</svg>
