<svg width="437" height="836" viewBox="0 0 437 836" fill="none" xmlns="http://www.w3.org/2000/svg">
<g clip-path="url(#clip0_33_121)">
<path d="M92.6759 236.708C92.6759 238.987 94.5074 240.837 96.7874 240.837H193.278C195.943 240.837 197.863 238.28 197.069 235.736C197.029 235.606 196.988 235.476 196.947 235.346C196.429 233.693 194.891 232.58 193.159 232.58H96.7874C94.5074 232.58 92.6759 234.429 92.6759 236.708Z" fill="#FF9500"/>
<path d="M-100.941 520.663C-100.281 521.049 -99.5892 521.236 -98.8666 521.223C-97.4462 521.223 -96.0633 520.495 -95.297 519.187C-70.31 476.354 -51.3781 416.522 -40.5386 346.173C-31.9791 290.544 15.3038 246.459 71.8938 241.341C74.1738 241.135 75.8559 239.118 75.6316 236.858C75.4447 234.597 73.445 232.916 71.1649 233.122C10.8372 238.576 -39.5667 285.594 -48.7056 344.921C-59.377 414.262 -77.9537 473.066 -102.436 515.04C-103.576 517.002 -102.903 519.523 -100.941 520.663Z" fill="#FF9500"/>
<path d="M-28.3161 348.06C-32.8201 377.275 -38.6697 404.884 -45.7154 430.065C-46.3321 432.269 -45.0613 434.529 -42.856 435.146C-40.6881 435.762 -38.3894 434.492 -37.7726 432.288C-30.6335 406.79 -24.7091 378.863 -20.149 349.311C-12.4492 299.23 31.9182 261.459 83.0323 261.459H198.937C201.492 261.459 203.394 259.096 202.802 256.61C202.772 256.484 202.742 256.358 202.712 256.232C202.285 254.449 200.683 253.203 198.849 253.203H83.0323C27.8814 253.203 -19.9808 293.981 -28.3161 348.06Z" fill="#FF9500"/>
<path d="M33.9927 297.979C35.8242 296.652 36.2541 294.075 34.9272 292.225C33.6003 290.376 31.0212 289.965 29.171 291.291C9.24864 305.619 -4.28212 327.456 -7.92646 351.198C-23.4131 451.813 -53.9612 528.736 -94.9518 575.33C-96.3816 576.955 -96.3047 579.417 -94.7215 580.893C-94.6483 580.962 -94.575 581.03 -94.5017 581.098C-92.8962 582.591 -90.3919 582.472 -88.9434 580.826C-46.7685 532.914 -15.5061 454.587 0.221899 352.45C3.54852 330.893 15.8458 311.036 33.9927 297.979Z" fill="#FF9500"/>
<path d="M46.8881 281.26C44.7949 282.157 43.8231 284.585 44.7202 286.677C45.6173 288.769 48.0281 289.759 50.14 288.844C60.6244 284.342 71.6883 282.063 83.0324 282.063H203.229C205.694 282.063 207.574 279.855 207.14 277.429C207.119 277.311 207.098 277.193 207.077 277.075C206.737 275.187 205.086 273.825 203.167 273.825H83.0324C70.5669 273.825 58.4005 276.329 46.8881 281.26Z" fill="#FF9500"/>
<path d="M83.0324 302.686H132.876C135.156 302.686 137.006 300.837 137.006 298.558C137.006 296.279 135.156 294.429 132.876 294.429H83.0324C48.0468 294.429 17.7147 320.189 12.4632 354.336C-3.56281 458.364 -35.7421 538.549 -79.3592 588.461C-80.8819 590.204 -80.6607 592.869 -78.8197 594.27C-78.7306 594.338 -78.6414 594.406 -78.5523 594.474C-76.9172 595.715 -74.6141 595.485 -73.2632 593.939C-28.5095 542.734 4.36 461.163 20.6115 355.588C25.2464 325.42 52.0836 302.686 83.0324 302.686Z" fill="#FF9500"/>
<path d="M158.666 298.558C158.666 300.837 160.516 302.686 162.796 302.686H206.224C208.602 302.686 210.457 300.622 210.177 298.26C210.164 298.148 210.151 298.036 210.137 297.924C209.899 295.925 208.198 294.429 206.185 294.429H162.796C160.516 294.429 158.666 296.279 158.666 298.558Z" fill="#FF9500"/>
<path d="M32.834 357.474C24.1437 413.944 10.5943 464.474 -7.40314 507.643C-8.28152 509.735 -7.29102 512.145 -5.19786 513.023C-3.08602 513.901 -0.675154 512.911 0.203223 510.8C18.481 467.033 32.1986 415.868 40.9824 358.726C44.1034 338.533 62.1756 323.29 83.0324 323.29H208.1C210.38 323.29 212.201 321.387 212.072 319.111C212.066 319.001 212.059 318.89 212.053 318.78C211.932 316.681 210.185 315.052 208.082 315.052H83.0324C58.1388 315.052 36.5718 333.284 32.834 357.474Z" fill="#FF9500"/>
<path d="M55.3167 373.577C53.0741 373.147 50.9435 374.697 50.5511 376.939C33.1788 476.878 0.37314 556.112 -43.7557 609.649C-45.4326 611.684 -44.7699 614.764 -42.3544 615.821C-42.2307 615.875 -42.1071 615.928 -41.9835 615.982C-40.3837 616.677 -38.5273 616.228 -37.4182 614.882C7.64861 560.182 41.0568 479.703 58.6807 378.34C59.0732 376.098 57.5594 373.969 55.3167 373.577Z" fill="#FF9500"/>
<path d="M56.1764 351.721C55.1112 353.738 55.8774 356.223 57.8958 357.288C59.9142 358.352 62.3999 357.568 63.4651 355.55C67.1842 348.489 74.8653 343.913 83.0324 343.913H208.901C211.111 343.913 212.899 342.122 212.851 339.913C212.848 339.806 212.846 339.7 212.843 339.593C212.794 337.416 211.01 335.675 208.833 335.675H83.0324C71.8377 335.675 61.2972 341.97 56.1764 351.721Z" fill="#FF9500"/>
<path d="M24.8539 546.535C22.7794 545.563 20.3312 546.404 19.3407 548.44C6.75348 574.33 -7.52258 597.214 -23.2189 617.107C-24.9703 619.326 -23.9851 622.629 -21.2594 623.38C-21.072 623.432 -20.8846 623.483 -20.6972 623.534C-19.1831 623.945 -17.5747 623.402 -16.6048 622.169C-0.603672 601.825 13.936 578.423 26.7602 552.045C27.7507 549.991 26.891 547.525 24.8539 546.535Z" fill="#FF9500"/>
<path d="M212.92 357.232C212.92 356.716 212.502 356.298 211.986 356.298H83.0324C78.3976 356.298 74.2673 359.548 73.6132 363.751C64.437 423.359 49.9531 477.082 30.6101 523.428C29.7317 525.538 30.7035 527.948 32.8154 528.826C34.9085 529.741 37.3381 528.714 38.2164 526.622C57.7509 479.854 72.3405 425.757 81.5797 365.987C81.6628 365.449 81.8546 364.893 82.3535 364.677C82.5446 364.594 82.7727 364.535 83.0324 364.535H208.85C211.035 364.535 212.827 362.782 212.875 360.597C212.9 359.483 212.92 358.365 212.92 357.232Z" fill="#FF9500"/>
<path d="M95.4418 383.701C93.2366 383.272 91.0686 384.785 90.6575 387.045C73.3906 484.222 41.8606 563.65 -0.663006 621.463C-2.46322 623.91 -1.04286 627.407 1.97996 627.713C2.16093 627.731 2.34187 627.749 2.5228 627.767C3.8927 627.899 5.22189 627.297 6.03687 626.188C49.2734 567.349 81.3024 486.869 98.7872 388.483C99.1796 386.242 97.6845 384.093 95.4418 383.701Z" fill="#FF9500"/>
<path d="M110.187 381.03C110.187 383.309 112.038 385.14 114.318 385.14H208.194C210.297 385.14 212.044 383.511 212.165 381.412C212.171 381.301 212.178 381.191 212.184 381.081C212.313 378.804 210.492 376.902 208.213 376.902H114.318C112.038 376.902 110.187 378.751 110.187 381.03Z" fill="#FF9500"/>
<path d="M109.085 400.868C100.525 445.906 88.7699 487.842 74.1178 525.538C73.2955 527.668 74.342 530.059 76.4726 530.881C78.6031 531.684 80.9953 530.657 81.8176 528.527C95.9113 492.207 107.372 452.029 115.906 408.999C116.279 407.121 117.924 405.762 119.839 405.762H206.436C208.469 405.762 210.181 404.237 210.398 402.215C210.409 402.116 210.419 402.016 210.43 401.917C210.682 399.566 208.832 397.524 206.467 397.524H113.14C111.159 397.524 109.458 398.925 109.085 400.868Z" fill="#FF9500"/>
<path d="M71.819 542.257C69.7072 541.36 67.2963 542.332 66.3992 544.424C54.0467 573.108 39.9497 598.911 24.3499 621.877C22.5078 624.589 24.4711 628.251 27.7404 628.006C28.0302 627.985 28.32 627.962 28.6098 627.938C29.7948 627.842 30.8674 627.208 31.5332 626.223C47.2964 602.905 61.5001 576.693 73.9869 547.674C74.884 545.582 73.9122 543.154 71.819 542.257Z" fill="#FF9500"/>
<path d="M148.35 422.385C148.35 424.594 150.141 426.385 152.35 426.385H203.492C205.432 426.385 207.097 424.993 207.448 423.085C207.471 422.964 207.493 422.843 207.515 422.721C207.957 420.311 206.095 418.128 203.644 418.128H152.35C150.141 418.128 148.35 419.919 148.35 422.128V422.385Z" fill="#FF9500"/>
<path d="M129.911 422.221C127.75 421.766 125.628 423.156 125.162 425.315C108.962 500.338 83.8974 564.811 51.6146 617.09C49.7401 620.126 52.4025 623.897 55.8329 622.916C56.132 622.831 56.431 622.744 56.73 622.657C57.6635 622.384 58.4574 621.774 58.967 620.945C91.5686 567.949 116.868 502.757 133.235 427.017C133.701 424.857 132.318 422.728 130.156 422.273L129.911 422.221Z" fill="#FF9500"/>
<path d="M142.575 441.945C128.29 503.477 107.959 557.984 82.5499 604.618C80.694 608.024 84.1732 611.77 87.59 609.933C87.9684 609.73 88.3466 609.525 88.7245 609.318C89.3901 608.954 89.9337 608.406 90.2951 607.739C114.954 562.222 134.855 509.418 149.129 450.09C149.563 448.287 151.174 447.008 153.029 447.008H199.38C201.228 447.008 202.837 445.743 203.243 443.941C203.269 443.825 203.295 443.71 203.321 443.595C203.878 441.106 201.971 438.751 199.422 438.751H146.495C144.637 438.751 143.023 440.031 142.6 441.84L142.575 441.945Z" fill="#FF9500"/>
<path d="M158.816 462.475C147.991 505.232 134.175 544.585 117.745 580.272C115.986 584.093 120.354 587.601 123.512 584.822C124.025 584.37 124.538 583.915 125.049 583.456C125.454 583.093 125.778 582.651 126.004 582.156C141.523 548.138 154.69 510.878 165.231 470.614C165.694 468.848 167.286 467.612 169.111 467.612H193.784C195.53 467.612 197.076 466.48 197.602 464.815C197.64 464.695 197.678 464.574 197.716 464.453C198.515 461.917 196.609 459.374 193.95 459.374H162.714C160.883 459.374 159.286 460.617 158.837 462.392L158.816 462.475Z" fill="#FF9500"/>
<path d="M174.739 483.004C170.1 499.871 164.977 516.2 159.417 531.989C157.892 536.318 163.088 539.137 165.556 535.267C166.612 533.612 167.655 531.936 168.685 530.239C168.833 529.995 168.954 529.736 169.047 529.467C173.312 517.019 177.302 504.249 181.018 491.156C181.507 489.43 183.081 488.234 184.876 488.234H186.688C188.33 488.234 189.808 487.231 190.397 485.698C190.446 485.573 190.494 485.447 190.542 485.321C191.533 482.731 189.603 479.978 186.83 479.978H178.619C176.814 479.978 175.233 481.187 174.759 482.929L174.739 483.004Z" fill="#FF9500"/>
<path d="M-91.5032 338.346C-99.203 388.334 -111.594 433.203 -127.33 468.116C-128.264 470.19 -127.33 472.637 -125.255 473.571C-123.181 474.542 -120.733 473.571 -119.798 471.497C-103.539 435.407 -91.2789 391.024 -83.3548 339.579C-70.6837 257.275 -0.712528 197.536 83.0324 197.536H175.951C178.887 197.536 180.819 194.48 179.514 191.85C179.455 191.731 179.396 191.612 179.336 191.493C178.665 190.144 177.284 189.298 175.777 189.298H83.0324C-4.80539 189.298 -78.2154 251.97 -91.5032 338.346Z" fill="#FF9500"/>
<path d="M-2.07683 196.77C-0.0397379 195.762 0.782583 193.277 -0.226617 191.241C-1.25451 189.186 -3.70276 188.364 -5.75854 189.392C-62.498 217.636 -102.175 272.144 -111.893 335.208C-122.426 403.607 -140.15 451.384 -157.366 481.455C-157.966 482.503 -158.069 483.754 -157.636 484.88C-157.544 485.117 -157.453 485.353 -157.362 485.59C-156.19 488.611 -152.131 488.951 -150.508 486.146C-132.182 454.458 -114.288 405.011 -103.726 336.441C-94.4373 276.048 -56.4241 223.819 -2.07683 196.77Z" fill="#FF9500"/>
<path d="M13.1733 181.173C11.0428 181.976 9.9588 184.348 10.7437 186.478C11.5474 188.607 13.9395 189.691 16.0514 188.887C37.3754 180.948 59.9142 176.932 83.0324 176.932H164.573C167.653 176.932 169.57 173.601 167.967 170.971C167.885 170.836 167.802 170.701 167.72 170.566C166.999 169.388 165.713 168.676 164.331 168.676H83.0324C58.9237 168.676 35.4318 172.879 13.1733 181.173Z" fill="#FF9500"/>
<path d="M-127.928 310.737C-128.488 312.941 -127.162 315.183 -124.938 315.743C-124.601 315.83 -124.259 315.874 -123.91 315.874C-122.078 315.874 -120.396 314.641 -119.929 312.792C-96.3249 220.643 -12.8603 156.31 83.0324 156.31H150.522C153.775 156.31 155.652 152.643 153.683 150.054C153.568 149.904 153.453 149.753 153.339 149.603C152.589 148.622 151.421 148.053 150.186 148.053H83.0324C-16.6355 148.053 -103.371 214.946 -127.928 310.737Z" fill="#FF9500"/>
<path d="M-52.0696 168.769C-53.9572 170.058 -54.4431 172.617 -53.1722 174.485C-51.8827 176.391 -49.3223 176.858 -47.4347 175.587C-9.14121 149.473 35.9738 135.687 83.0324 135.687H132.916C136.374 135.687 138.172 131.622 135.76 129.144C135.593 128.973 135.426 128.802 135.258 128.631C134.514 127.871 133.492 127.449 132.429 127.449H83.0324C34.3105 127.449 -12.4118 141.72 -52.0696 168.769Z" fill="#FF9500"/>
<path d="M-130.339 217.916C-131.647 219.784 -131.161 222.362 -129.292 223.651C-128.557 224.149 -127.778 224.392 -126.956 224.379C-125.648 224.379 -124.358 223.763 -123.555 222.605C-77.0941 155.263 0.147139 115.083 83.0324 115.083H109.864C113.586 115.083 115.233 110.512 112.273 108.256C111.994 108.043 111.714 107.831 111.434 107.62C110.748 107.102 109.91 106.826 109.05 106.826H83.0324C-2.58144 106.826 -82.3457 148.352 -130.339 217.916Z" fill="#FF9500"/>
<path d="M-23.2514 111.179C-22.4104 113.308 -20.0182 114.336 -17.9064 113.514C14.1077 100.867 48.0654 94.46 83.0324 94.46C85.2879 94.46 86.0355 91.5435 84.0242 90.5227C81.3924 89.1869 78.7486 87.9293 76.0927 86.7501C75.5558 86.5117 74.9715 86.3979 74.3843 86.4152C41.4321 87.3846 9.4047 93.8583 -20.934 105.836C-23.0458 106.658 -24.0924 109.068 -23.2514 111.179Z" fill="#FF9500"/>
<path d="M20.3106 80.6349C24.7267 79.6741 24.6404 73.9494 20.1217 73.8707C19.05 73.852 17.9797 73.8471 16.9111 73.856C16.7865 73.856 16.6681 73.856 16.556 73.856C16.4314 73.856 16.313 73.856 16.2009 73.856C15.096 73.856 13.9912 73.9142 12.8864 73.9407C12.5927 73.9477 12.3 73.9839 12.0143 74.0527C-30.4878 84.2972 -69.8442 103.553 -103.52 130.064C-104.995 131.602 -106.455 133.17 -107.902 134.768C-111.171 138.381 -106.119 142.767 -102.341 139.69C-67.0791 110.961 -25.1302 90.5209 20.3106 80.6349Z" fill="#FF9500"/>
<path d="M-1.53479 235.924C-3.44105 237.175 -3.98305 239.716 -2.74958 241.64C-1.94596 242.854 -0.619048 243.508 0.726552 243.508C1.51149 243.508 2.25903 243.29 2.96921 242.854C26.8349 227.368 54.5319 219.186 83.0324 219.186H185.612C188.412 219.186 190.344 216.385 189.299 213.787C189.249 213.665 189.2 213.542 189.151 213.42C188.545 211.921 187.085 210.949 185.468 210.949H83.0324C52.9246 210.949 23.6952 219.579 -1.53479 235.924Z" fill="#FF9500"/>
</g>
<defs>
<clipPath id="clip0_33_121">
<rect width="437" height="934" fill="white" transform="translate(0 -98)"/>
</clipPath>
</defs>
</svg>
