<svg width="437" height="637" viewBox="0 0 437 637" fill="none" xmlns="http://www.w3.org/2000/svg">
<g clip-path="url(#clip0_33_950)">
<path d="M344.324 236.708C344.324 238.987 342.493 240.837 340.213 240.837H243.722C241.057 240.837 239.138 238.28 239.931 235.736C239.972 235.606 240.012 235.476 240.053 235.346C240.571 233.693 242.109 232.58 243.841 232.58H340.213C342.493 232.58 344.324 234.429 344.324 236.708Z" fill="#70AB8B"/>
<path d="M537.941 520.663C537.281 521.049 536.589 521.236 535.866 521.223C534.446 521.223 533.063 520.495 532.297 519.187C507.31 476.354 488.378 416.522 477.538 346.173C468.979 290.544 421.696 246.459 365.106 241.341C362.826 241.135 361.144 239.118 361.368 236.858C361.555 234.597 363.555 232.916 365.835 233.122C426.163 238.576 476.567 285.594 485.705 344.921C496.377 414.262 514.954 473.066 539.436 515.04C540.576 517.002 539.903 519.523 537.941 520.663Z" fill="#70AB8B"/>
<path d="M465.316 348.06C469.82 377.275 475.67 404.884 482.715 430.065C483.332 432.269 482.061 434.529 479.856 435.146C477.688 435.762 475.389 434.492 474.773 432.288C467.633 406.79 461.709 378.863 457.149 349.311C449.449 299.23 405.082 261.459 353.968 261.459H238.063C235.507 261.459 233.606 259.096 234.198 256.61C234.228 256.484 234.258 256.358 234.288 256.232C234.715 254.449 236.317 253.203 238.151 253.203H353.968C409.118 253.203 456.981 293.981 465.316 348.06Z" fill="#70AB8B"/>
<path d="M403.007 297.979C401.176 296.652 400.746 294.075 402.073 292.225C403.4 290.376 405.979 289.965 407.829 291.291C427.751 305.619 441.282 327.456 444.926 351.198C460.413 451.813 490.961 528.736 531.952 575.33C533.381 576.955 533.305 579.417 531.721 580.893C531.648 580.962 531.575 581.03 531.502 581.098C529.896 582.591 527.392 582.472 525.943 580.826C483.768 532.914 452.506 454.587 436.778 352.45C433.451 330.893 421.154 311.036 403.007 297.979Z" fill="#70AB8B"/>
<path d="M390.112 281.26C392.205 282.157 393.177 284.585 392.28 286.677C391.383 288.769 388.972 289.759 386.86 288.844C376.376 284.342 365.312 282.063 353.968 282.063H233.771C231.306 282.063 229.426 279.855 229.86 277.429C229.881 277.311 229.902 277.193 229.923 277.075C230.263 275.187 231.915 273.825 233.833 273.825H353.968C366.433 273.825 378.6 276.329 390.112 281.26Z" fill="#70AB8B"/>
<path d="M353.968 302.686H304.124C301.844 302.686 299.994 300.837 299.994 298.558C299.994 296.279 301.844 294.429 304.124 294.429H353.968C388.953 294.429 419.285 320.189 424.537 354.336C440.563 458.364 472.742 538.549 516.359 588.461C517.882 590.204 517.661 592.869 515.82 594.27C515.731 594.338 515.641 594.406 515.552 594.474C513.917 595.715 511.614 595.485 510.263 593.939C465.509 542.734 432.64 461.163 416.388 355.588C411.754 325.42 384.916 302.686 353.968 302.686Z" fill="#70AB8B"/>
<path d="M278.334 298.558C278.334 300.837 276.484 302.686 274.204 302.686H230.776C228.398 302.686 226.543 300.622 226.823 298.26C226.836 298.148 226.849 298.036 226.863 297.924C227.101 295.925 228.802 294.429 230.815 294.429H274.204C276.484 294.429 278.334 296.279 278.334 298.558Z" fill="#70AB8B"/>
<path d="M404.166 357.474C412.856 413.944 426.406 464.474 444.403 507.643C445.281 509.735 444.291 512.145 442.198 513.023C440.086 513.901 437.675 512.911 436.797 510.8C418.519 467.033 404.801 415.868 396.017 358.726C392.896 338.533 374.824 323.29 353.967 323.29H228.899C226.62 323.29 224.799 321.387 224.928 319.111C224.934 319.001 224.941 318.89 224.947 318.78C225.068 316.681 226.815 315.052 228.918 315.052H353.967C378.861 315.052 400.428 333.284 404.166 357.474Z" fill="#70AB8B"/>
<path d="M381.683 373.577C383.926 373.147 386.056 374.697 386.449 376.939C403.821 476.878 436.627 556.112 480.756 609.649C482.432 611.684 481.77 614.764 479.354 615.821C479.231 615.875 479.107 615.928 478.983 615.982C477.384 616.677 475.527 616.228 474.418 614.882C429.351 560.182 395.943 479.703 378.319 378.34C377.927 376.098 379.44 373.969 381.683 373.577Z" fill="#70AB8B"/>
<path d="M380.824 351.721C381.889 353.738 381.123 356.223 379.104 357.288C377.086 358.352 374.6 357.568 373.535 355.55C369.816 348.489 362.135 343.913 353.968 343.913H228.099C225.89 343.913 224.101 342.122 224.15 339.913C224.152 339.806 224.154 339.7 224.157 339.593C224.206 337.416 225.99 335.675 228.167 335.675H353.968C365.162 335.675 375.703 341.97 380.824 351.721Z" fill="#70AB8B"/>
<path d="M412.146 546.535C414.221 545.563 416.669 546.404 417.659 548.44C430.247 574.33 444.523 597.214 460.219 617.107C461.97 619.326 460.985 622.629 458.259 623.38C458.072 623.432 457.885 623.483 457.697 623.534C456.183 623.945 454.575 623.402 453.605 622.169C437.604 601.825 423.064 578.423 410.24 552.045C409.249 549.991 410.109 547.525 412.146 546.535Z" fill="#70AB8B"/>
<path d="M224.08 357.232C224.08 356.716 224.498 356.298 225.014 356.298H353.968C358.602 356.298 362.733 359.548 363.387 363.751C372.563 423.359 387.047 477.082 406.39 523.428C407.268 525.538 406.296 527.948 404.185 528.826C402.091 529.741 399.662 528.714 398.784 526.622C379.249 479.854 364.659 425.757 355.42 365.987C355.337 365.449 355.145 364.893 354.646 364.677C354.455 364.594 354.227 364.535 353.968 364.535H228.15C225.965 364.535 224.173 362.782 224.125 360.597C224.1 359.483 224.08 358.365 224.08 357.232Z" fill="#70AB8B"/>
<path d="M341.558 383.701C343.763 383.272 345.931 384.785 346.343 387.045C363.609 484.222 395.139 563.65 437.663 621.463C439.463 623.91 438.043 627.407 435.02 627.713C434.839 627.731 434.658 627.749 434.477 627.767C433.107 627.899 431.778 627.297 430.963 626.188C387.727 567.349 355.698 486.869 338.213 388.483C337.82 386.242 339.315 384.093 341.558 383.701Z" fill="#70AB8B"/>
<path d="M326.813 381.03C326.813 383.309 324.963 385.14 322.683 385.14H228.806C226.703 385.14 224.956 383.511 224.835 381.412C224.829 381.301 224.822 381.191 224.816 381.081C224.687 378.804 226.508 376.902 228.788 376.902H322.683C324.963 376.902 326.813 378.751 326.813 381.03Z" fill="#70AB8B"/>
<path d="M327.915 400.868C336.475 445.906 348.23 487.842 362.882 525.538C363.705 527.668 362.658 530.059 360.527 530.881C358.397 531.684 356.005 530.657 355.182 528.527C341.089 492.207 329.628 452.029 321.094 408.999C320.721 407.121 319.076 405.762 317.161 405.762H230.564C228.531 405.762 226.819 404.237 226.602 402.215C226.591 402.116 226.581 402.016 226.57 401.917C226.318 399.566 228.168 397.524 230.533 397.524H323.86C325.841 397.524 327.542 398.925 327.915 400.868Z" fill="#70AB8B"/>
<path d="M365.181 542.257C367.293 541.36 369.704 542.332 370.601 544.424C382.953 573.108 397.05 598.911 412.65 621.877C414.492 624.589 412.529 628.251 409.26 628.006C408.97 627.985 408.68 627.962 408.39 627.938C407.205 627.842 406.133 627.208 405.467 626.223C389.704 602.905 375.5 576.693 363.013 547.674C362.116 545.582 363.088 543.154 365.181 542.257Z" fill="#70AB8B"/>
<path d="M288.65 422.385C288.65 424.594 286.859 426.385 284.65 426.385H233.508C231.568 426.385 229.903 424.993 229.552 423.085C229.529 422.964 229.507 422.843 229.485 422.721C229.043 420.311 230.905 418.128 233.356 418.128H284.65C286.859 418.128 288.65 419.919 288.65 422.128V422.385Z" fill="#70AB8B"/>
<path d="M307.089 422.221C309.25 421.766 311.372 423.156 311.838 425.315C328.038 500.338 353.103 564.811 385.386 617.09C387.26 620.126 384.598 623.897 381.167 622.916C380.868 622.831 380.569 622.744 380.27 622.657C379.337 622.384 378.543 621.774 378.033 620.945C345.432 567.949 320.132 502.757 303.765 427.017C303.299 424.857 304.682 422.728 306.844 422.273L307.089 422.221Z" fill="#70AB8B"/>
<path d="M294.425 441.945C308.71 503.477 329.041 557.984 354.45 604.618C356.306 608.024 352.827 611.77 349.41 609.933C349.032 609.73 348.653 609.525 348.276 609.318C347.61 608.954 347.066 608.406 346.705 607.739C322.046 562.222 302.145 509.418 287.871 450.09C287.437 448.287 285.826 447.008 283.971 447.008H237.62C235.772 447.008 234.163 445.743 233.757 443.941C233.731 443.825 233.705 443.71 233.679 443.595C233.122 441.106 235.029 438.751 237.578 438.751H290.505C292.363 438.751 293.977 440.031 294.4 441.84L294.425 441.945Z" fill="#70AB8B"/>
<path d="M278.184 462.475C289.009 505.232 302.825 544.585 319.255 580.272C321.014 584.093 316.646 587.601 313.488 584.822C312.975 584.37 312.462 583.915 311.951 583.456C311.546 583.093 311.222 582.651 310.996 582.156C295.477 548.138 282.31 510.878 271.769 470.614C271.306 468.848 269.714 467.612 267.889 467.612H243.216C241.47 467.612 239.924 466.48 239.398 464.815C239.36 464.695 239.322 464.574 239.284 464.453C238.485 461.917 240.391 459.374 243.05 459.374H274.286C276.117 459.374 277.714 460.617 278.163 462.392L278.184 462.475Z" fill="#70AB8B"/>
<path d="M262.261 483.004C266.9 499.871 272.023 516.2 277.583 531.989C279.108 536.318 273.912 539.137 271.444 535.267C270.388 533.612 269.345 531.936 268.315 530.239C268.167 529.995 268.046 529.736 267.953 529.467C263.688 517.019 259.698 504.249 255.982 491.156C255.493 489.43 253.919 488.234 252.124 488.234H250.312C248.67 488.234 247.192 487.231 246.603 485.698C246.554 485.573 246.506 485.447 246.458 485.321C245.467 482.731 247.397 479.978 250.17 479.978H258.381C260.186 479.978 261.767 481.187 262.241 482.929L262.261 483.004Z" fill="#70AB8B"/>
<path d="M528.503 338.346C536.203 388.334 548.594 433.203 564.33 468.116C565.264 470.19 564.33 472.637 562.255 473.571C560.181 474.542 557.732 473.571 556.798 471.497C540.539 435.407 528.279 391.024 520.355 339.579C507.684 257.275 437.712 197.536 353.967 197.536H261.049C258.113 197.536 256.181 194.48 257.486 191.85C257.545 191.731 257.604 191.612 257.663 191.493C258.335 190.144 259.716 189.298 261.223 189.298H353.967C441.805 189.298 515.215 251.97 528.503 338.346Z" fill="#70AB8B"/>
<path d="M439.077 196.77C437.04 195.762 436.217 193.277 437.227 191.241C438.255 189.186 440.703 188.364 442.759 189.392C499.498 217.636 539.175 272.144 548.893 335.208C559.426 403.607 577.15 451.384 594.366 481.455C594.966 482.503 595.069 483.754 594.636 484.88C594.544 485.117 594.453 485.353 594.362 485.59C593.19 488.611 589.131 488.951 587.508 486.146C569.182 454.458 551.288 405.011 540.726 336.441C531.437 276.048 493.424 223.819 439.077 196.77Z" fill="#70AB8B"/>
<path d="M423.827 181.173C425.957 181.976 427.041 184.348 426.256 186.478C425.453 188.607 423.06 189.691 420.949 188.887C399.625 180.948 377.086 176.932 353.968 176.932H272.427C269.347 176.932 267.43 173.601 269.033 170.971C269.115 170.836 269.198 170.701 269.28 170.566C270.001 169.388 271.287 168.676 272.669 168.676H353.968C378.076 168.676 401.568 172.879 423.827 181.173Z" fill="#70AB8B"/>
<path d="M564.928 310.737C565.488 312.941 564.162 315.183 561.938 315.743C561.601 315.83 561.259 315.874 560.91 315.874C559.078 315.874 557.396 314.641 556.929 312.792C533.325 220.643 449.86 156.31 353.968 156.31H286.478C283.225 156.31 281.348 152.643 283.317 150.054C283.432 149.904 283.547 149.753 283.661 149.603C284.411 148.622 285.579 148.053 286.814 148.053H353.968C453.635 148.053 540.371 214.946 564.928 310.737Z" fill="#70AB8B"/>
<path d="M489.07 168.769C490.957 170.058 491.443 172.617 490.172 174.485C488.883 176.391 486.322 176.858 484.435 175.587C446.141 149.473 401.026 135.687 353.968 135.687H304.084C300.626 135.687 298.829 131.622 301.24 129.144C301.407 128.973 301.574 128.802 301.742 128.631C302.486 127.871 303.508 127.449 304.571 127.449H353.968C402.69 127.449 449.412 141.72 489.07 168.769Z" fill="#70AB8B"/>
<path d="M567.339 217.916C568.647 219.784 568.161 222.362 566.292 223.651C565.557 224.149 564.778 224.392 563.956 224.379C562.648 224.379 561.358 223.763 560.555 222.605C514.094 155.263 436.853 115.083 353.968 115.083H327.136C323.414 115.083 321.767 110.512 324.727 108.256C325.006 108.043 325.286 107.831 325.566 107.62C326.252 107.102 327.09 106.826 327.95 106.826H353.968C439.581 106.826 519.346 148.352 567.339 217.916Z" fill="#70AB8B"/>
<path d="M460.251 111.179C459.41 113.308 457.018 114.336 454.906 113.514C422.892 100.867 388.935 94.46 353.968 94.46C351.712 94.46 350.964 91.5435 352.976 90.5227C355.608 89.1869 358.251 87.9293 360.907 86.7501C361.444 86.5117 362.028 86.3979 362.616 86.4152C395.568 87.3846 427.595 93.8583 457.934 105.836C460.046 106.658 461.092 109.068 460.251 111.179Z" fill="#70AB8B"/>
<path d="M416.689 80.6349C412.273 79.6741 412.36 73.9494 416.878 73.8707C417.95 73.852 419.02 73.8471 420.089 73.856C420.214 73.856 420.332 73.856 420.444 73.856C420.569 73.856 420.687 73.856 420.799 73.856C421.904 73.856 423.009 73.9142 424.114 73.9407C424.407 73.9477 424.7 73.9839 424.986 74.0527C467.488 84.2972 506.844 103.553 540.52 130.064C541.995 131.602 543.455 133.17 544.902 134.768C548.171 138.381 543.119 142.767 539.341 139.69C504.079 110.961 462.13 90.5209 416.689 80.6349Z" fill="#70AB8B"/>
<path d="M438.535 235.924C440.441 237.175 440.983 239.716 439.75 241.64C438.946 242.854 437.619 243.508 436.273 243.508C435.489 243.508 434.741 243.29 434.031 242.854C410.165 227.368 382.468 219.186 353.968 219.186H251.388C248.588 219.186 246.656 216.385 247.701 213.787C247.751 213.665 247.8 213.542 247.849 213.42C248.455 211.921 249.915 210.949 251.532 210.949H353.968C384.075 210.949 413.305 219.579 438.535 235.924Z" fill="#70AB8B"/>
</g>
<defs>
<clipPath id="clip0_33_950">
<rect width="437" height="735" fill="white" transform="matrix(-1 0 0 1 437 -98)"/>
</clipPath>
</defs>
</svg>
