<svg width="30" height="31" viewBox="0 0 30 31" fill="none" xmlns="http://www.w3.org/2000/svg">
<path d="M27.0931 20.5785C27.3518 20.1324 27.2289 19.5627 26.8093 19.263L25.2374 18.1402C24.8954 17.8959 24.7475 17.4647 24.8317 17.0529C25.0979 15.7516 25.1106 14.3815 24.8305 13.0017C24.7466 12.5885 24.8976 12.1567 25.2424 11.9142L26.8 10.8188C27.2241 10.5205 27.3499 9.94757 27.0897 9.49908L25.7075 7.11586C25.4498 6.67158 24.8975 6.49474 24.4297 6.70675L22.6741 7.50235C22.2927 7.6752 21.8471 7.58859 21.5342 7.31032C20.5394 6.42564 19.3649 5.71602 18.0369 5.27944C17.632 5.14633 17.327 4.79779 17.2886 4.37332L17.1185 2.4932C17.0718 1.97795 16.6399 1.58333 16.1225 1.58333H13.358C12.8407 1.58333 12.4087 1.97795 12.3621 2.4932L12.192 4.37332C12.1535 4.79779 11.8485 5.14633 11.4436 5.27944C10.1156 5.71602 8.94116 6.42564 7.94639 7.31032C7.63349 7.58859 7.18781 7.6752 6.80641 7.50235L5.0509 6.70675C4.5831 6.49474 4.03076 6.67158 3.77308 7.11586L2.39081 9.49908C2.13068 9.94757 2.25648 10.5205 2.68057 10.8188L4.23814 11.9142C4.58294 12.1567 4.73394 12.5885 4.65007 13.0017C4.36992 14.3815 4.38265 15.7516 4.64886 17.0529C4.7331 17.4647 4.58516 17.8959 4.24314 18.1402L2.67124 19.263C2.25162 19.5627 2.12873 20.1324 2.38745 20.5785L3.77121 22.9643C4.02968 23.4099 4.5844 23.5862 5.05275 23.3717L6.80908 22.5671C7.18904 22.393 7.63413 22.4772 7.94867 22.7524C8.94625 23.6251 10.1244 24.3188 11.4568 24.7676C11.8555 24.9019 12.1528 25.2481 12.1904 25.667L12.3628 27.5893C12.409 28.1049 12.8411 28.5 13.3588 28.5H16.1218C16.6394 28.5 17.0715 28.1049 17.1178 27.5893L17.2902 25.667C17.3278 25.2481 17.6251 24.9019 18.0237 24.7676C19.3561 24.3188 20.5343 23.6251 21.5319 22.7524C21.8464 22.4772 22.2915 22.393 22.6715 22.5671L24.4278 23.3717C24.8962 23.5862 25.4509 23.4099 25.7093 22.9643L27.0931 20.5785ZM17.9069 0C18.3344 0 18.6986 0.316667 18.6986 0.728333L18.9279 3.32699C18.9619 3.71244 19.217 4.03991 19.5714 4.19528C20.3457 4.53477 21.0649 4.95987 21.7337 5.44713C22.0425 5.67211 22.4487 5.72355 22.7945 5.56095L25.1586 4.44917C25.5228 4.25917 25.9819 4.38583 26.2036 4.75L29.3703 10.2917C29.5919 10.6242 29.4653 11.0833 29.1169 11.3208L26.9867 12.8133C26.6724 13.0334 26.5157 13.4136 26.5564 13.7952C26.6461 14.6374 26.6405 15.4713 26.5536 16.2924C26.5135 16.6716 26.6707 17.0486 26.983 17.2675L29.1169 18.7625C29.4653 19 29.5919 19.4592 29.3703 19.7917L26.2036 25.3333C25.9819 25.6658 25.5228 25.7925 25.1586 25.6025L22.7929 24.5027C22.4478 24.3424 22.0437 24.3945 21.7357 24.6179C21.0606 25.1076 20.3342 25.5315 19.5515 25.8849C19.207 26.0405 18.9622 26.3626 18.9283 26.7391L18.6986 29.2917C18.6986 29.7508 18.3344 30.0833 17.9069 30.0833H11.5736C11.3636 30.0833 11.1623 29.9999 11.0138 29.8515C10.8654 29.703 10.7819 29.5016 10.7819 29.2917L10.5522 26.7391C10.5183 26.3626 10.2736 26.0405 9.92904 25.8849C9.14639 25.5315 8.41993 25.1076 7.74484 24.6179C7.43685 24.3945 7.03272 24.3424 6.6877 24.5027L4.32194 25.6025C3.95778 25.7925 3.49861 25.6658 3.27694 25.3333L0.110277 19.7917C-0.111389 19.4592 0.0152774 19 0.363611 18.7625L2.49757 17.2675C2.80988 17.0486 2.96706 16.6716 2.92693 16.2924C2.84005 15.4713 2.83442 14.6374 2.92419 13.7952C2.96485 13.4136 2.80811 13.0334 2.49387 12.8133L0.363611 11.3208C0.0152774 11.0833 -0.111389 10.6242 0.110277 10.2917L3.27694 4.75C3.49861 4.38583 3.95778 4.25917 4.32194 4.44917L6.68608 5.56095C7.03184 5.72355 7.43801 5.67211 7.74683 5.44713C8.41564 4.95987 9.13486 4.53477 9.90918 4.19528C10.2636 4.03991 10.5186 3.71244 10.5527 3.32699L10.7819 0.728333C10.7819 0.316667 11.1461 0 11.5736 0H17.9069ZM14.7403 9.5C16.21 9.5 17.6196 10.0839 18.6588 11.1231C19.6981 12.1624 20.2819 13.5719 20.2819 15.0417C20.2819 16.5114 19.6981 17.921 18.6588 18.9602C17.6196 19.9995 16.21 20.5833 14.7403 20.5833C13.2705 20.5833 11.861 19.9995 10.8217 18.9602C9.78246 17.921 9.19861 16.5114 9.19861 15.0417C9.19861 13.5719 9.78246 12.1624 10.8217 11.1231C11.861 10.0839 13.2705 9.5 14.7403 9.5ZM14.7403 11.0833C13.6905 11.0833 12.6836 11.5004 11.9413 12.2427C11.199 12.985 10.7819 13.9919 10.7819 15.0417C10.7819 16.0915 11.199 17.0983 11.9413 17.8406C12.6836 18.583 13.6905 19 14.7403 19C15.7901 19 16.7969 18.583 17.5392 17.8406C18.2816 17.0983 18.6986 16.0915 18.6986 15.0417C18.6986 13.9919 18.2816 12.985 17.5392 12.2427C16.7969 11.5004 15.7901 11.0833 14.7403 11.0833Z" fill="black"/>
</svg>
