<svg width="36" height="34" viewBox="0 0 36 34" fill="none" xmlns="http://www.w3.org/2000/svg">
<path d="M1.36754 15.1054C0.343865 14.3029 0.346432 12.7522 1.37276 11.9532L16.1841 0.421886C16.9077 -0.141505 17.9218 -0.14053 18.6444 0.424249L34.0023 12.4286C35.0271 13.2296 35.0267 14.7802 34.0016 15.5807L19.1901 27.1463C18.4656 27.712 17.4488 27.711 16.7254 27.144L1.36754 15.1054ZM30.6674 15.5395C31.6928 14.7389 31.693 13.1878 30.6677 12.3869L18.6855 3.02733C17.9631 2.4631 16.9497 2.4621 16.2263 3.02489L4.74917 11.9533C3.72229 12.7522 3.71943 14.3033 4.74338 15.106L16.7254 24.4982C17.4488 25.0652 18.4656 25.0662 19.1901 24.5006L30.6674 15.5395ZM19.1901 33.3963C18.4656 33.962 17.4488 33.961 16.7254 33.394L0.385401 20.5855C-0.135516 20.1771 -0.127074 19.3857 0.402434 18.9886C0.766401 18.7156 1.26826 18.7208 1.62648 19.0013L16.6839 30.7911C17.4073 31.3575 18.4235 31.3582 19.1477 30.7928L33.7058 19.4268C34.085 19.1308 34.6178 19.1339 34.9935 19.4344C35.517 19.8532 35.5123 20.651 34.9839 21.0636L19.1901 33.3963Z" fill="black"/>
</svg>
